<svg width="150" height="50" viewBox="0 0 150 50" fill="none" xmlns="http://www.w3.org/2000/svg">
<rect width="150" height="50" rx="5" fill="black"/>
<path d="M39.504 33.24C38.176 33.24 36.592 33.112 34.752 32.856V30.912C36.608 31.312 38.24 31.512 39.648 31.512C40.832 31.512 41.696 31.384 42.24 31.128C42.784 30.856 43.056 30.36 43.056 29.64V27.624C43.056 26.952 42.864 26.48 42.48 26.208C42.096 25.936 41.424 25.8 40.464 25.8H38.64C37.12 25.8 36.04 25.496 35.4 24.888C34.76 24.28 34.44 23.336 34.44 22.056V20.808C34.44 19.96 34.624 19.272 34.992 18.744C35.376 18.216 36.008 17.824 36.888 17.568C37.784 17.312 39.008 17.184 40.56 17.184C41.6 17.184 42.936 17.272 44.568 17.448V19.2C42.744 18.928 41.352 18.792 40.392 18.792C38.904 18.792 37.92 18.936 37.44 19.224C36.944 19.528 36.696 20.032 36.696 20.736V22.512C36.696 23.056 36.888 23.456 37.272 23.712C37.672 23.952 38.352 24.072 39.312 24.072H41.184C42.256 24.072 43.088 24.2 43.68 24.456C44.288 24.712 44.712 25.104 44.952 25.632C45.208 26.144 45.336 26.84 45.336 27.72V28.848C45.336 29.952 45.128 30.824 44.712 31.464C44.312 32.104 43.688 32.56 42.84 32.832C41.992 33.104 40.88 33.24 39.504 33.24ZM48.6801 17.424H51.0081V33H48.6801V17.424ZM61.7276 33.24C60.9916 33.24 60.3356 33.208 59.7596 33.144C59.1996 33.08 58.6076 32.96 57.9836 32.784C57.2796 32.592 56.6876 32.352 56.2076 32.064C55.7276 31.76 55.3356 31.352 55.0316 30.84C54.7116 30.296 54.5516 29.688 54.5516 29.016V21.648C54.5516 20.752 54.7836 19.984 55.2476 19.344C55.7116 18.704 56.3516 18.24 57.1676 17.952C57.9516 17.68 58.6956 17.488 59.3996 17.376C60.1196 17.248 60.8956 17.184 61.7276 17.184C63.7116 17.184 65.5036 17.312 67.1036 17.568V19.368C66.4956 19.224 65.6236 19.096 64.4876 18.984C63.3676 18.856 62.4636 18.792 61.7756 18.792C58.4956 18.792 56.8556 19.736 56.8556 21.624V28.968C56.8556 29.48 57.0076 29.928 57.3116 30.312C57.6316 30.696 58.0636 30.976 58.6076 31.152C59.1196 31.344 59.6316 31.48 60.1436 31.56C60.6556 31.624 61.2316 31.656 61.8716 31.656C62.9436 31.656 64.0876 31.512 65.3036 31.224V25.776H61.6556V24.144H67.4636V32.52C65.3836 33 63.4716 33.24 61.7276 33.24ZM71.016 17.424H73.824L82.296 30.288V17.424H84.336V33H81.528L73.056 19.92V33H71.016V17.424ZM93.891 17.424H96.219V33H93.891V17.424ZM100.243 17.424H103.051L111.523 30.288V17.424H113.563V33H110.755L102.283 19.92V33H100.243V17.424Z" fill="white"/>
</svg>
