<svg width="182" height="50" viewBox="0 0 182 50" fill="none" xmlns="http://www.w3.org/2000/svg">
<rect width="50" height="50" rx="5" fill="black"/>
<path d="M13.756 37.36C11.764 37.36 9.388 37.168 6.628 36.784V33.868C9.412 34.468 11.86 34.768 13.972 34.768C15.748 34.768 17.044 34.576 17.86 34.192C18.676 33.784 19.084 33.04 19.084 31.96V28.936C19.084 27.928 18.796 27.22 18.22 26.812C17.644 26.404 16.636 26.2 15.196 26.2H12.46C10.18 26.2 8.56 25.744 7.6 24.832C6.64 23.92 6.16 22.504 6.16 20.584V18.712C6.16 17.44 6.436 16.408 6.988 15.616C7.564 14.824 8.512 14.236 9.832 13.852C11.176 13.468 13.012 13.276 15.34 13.276C16.9 13.276 18.904 13.408 21.352 13.672V16.3C18.616 15.892 16.528 15.688 15.088 15.688C12.856 15.688 11.38 15.904 10.66 16.336C9.916 16.792 9.544 17.548 9.544 18.604V21.268C9.544 22.084 9.832 22.684 10.408 23.068C11.008 23.428 12.028 23.608 13.468 23.608H16.276C17.884 23.608 19.132 23.8 20.02 24.184C20.932 24.568 21.568 25.156 21.928 25.948C22.312 26.716 22.504 27.76 22.504 29.08V30.772C22.504 32.428 22.192 33.736 21.568 34.696C20.968 35.656 20.032 36.34 18.76 36.748C17.488 37.156 15.82 37.36 13.756 37.36ZM27.5201 13.636H35.1521C36.2321 13.636 37.0961 13.66 37.7441 13.708C38.4161 13.756 39.1241 13.864 39.8681 14.032C40.6361 14.2 41.2481 14.452 41.7041 14.788C42.1841 15.124 42.5921 15.58 42.9281 16.156C43.2401 16.708 43.3961 17.404 43.3961 18.244V23.104C43.3961 25.048 42.6401 26.452 41.1281 27.316C39.6401 28.156 37.4321 28.576 34.5041 28.576H31.0121V37H27.5201V13.636ZM34.9721 26.38C36.4841 26.38 37.6961 26.104 38.6081 25.552C39.5201 25 39.9761 24.124 39.9761 22.924V18.676C39.9761 18.028 39.8081 17.5 39.4721 17.092C39.1361 16.66 38.6561 16.36 38.0321 16.192C37.4321 16.048 36.9281 15.952 36.5201 15.904C36.1121 15.856 35.5721 15.832 34.9001 15.832H30.9761V26.38H34.9721Z" fill="white"/>
<path d="M68.878 35.18C67.882 35.18 66.694 35.084 65.314 34.892V33.434C66.706 33.734 67.93 33.884 68.986 33.884C69.874 33.884 70.522 33.788 70.93 33.596C71.338 33.392 71.542 33.02 71.542 32.48V30.968C71.542 30.464 71.398 30.11 71.11 29.906C70.822 29.702 70.318 29.6 69.598 29.6H68.23C67.09 29.6 66.28 29.372 65.8 28.916C65.32 28.46 65.08 27.752 65.08 26.792V25.856C65.08 25.22 65.218 24.704 65.494 24.308C65.782 23.912 66.256 23.618 66.916 23.426C67.588 23.234 68.506 23.138 69.67 23.138C70.45 23.138 71.452 23.204 72.676 23.336V24.65C71.308 24.446 70.264 24.344 69.544 24.344C68.428 24.344 67.69 24.452 67.33 24.668C66.958 24.896 66.772 25.274 66.772 25.802V27.134C66.772 27.542 66.916 27.842 67.204 28.034C67.504 28.214 68.014 28.304 68.734 28.304H70.138C70.942 28.304 71.566 28.4 72.01 28.592C72.466 28.784 72.784 29.078 72.964 29.474C73.156 29.858 73.252 30.38 73.252 31.04V31.886C73.252 32.714 73.096 33.368 72.784 33.848C72.484 34.328 72.016 34.67 71.38 34.874C70.744 35.078 69.91 35.18 68.878 35.18ZM75.652 22.4H77.272V35H75.652V22.4ZM77.47 30.23L81.142 26.288H83.122L79.342 30.23L83.464 35H81.448L77.47 30.23ZM84.8981 23.138H86.5181V24.83H84.8981V23.138ZM84.8981 26.288H86.5181V35H84.8981V26.288ZM89.3278 26.288H90.9478V27.35C91.1158 26.522 92.0698 26.108 93.8098 26.108C94.9258 26.108 95.7058 26.312 96.1498 26.72C96.6058 27.116 96.8338 27.746 96.8338 28.61V35H95.2138V28.7C95.2138 28.472 95.1958 28.286 95.1598 28.142C95.1238 27.998 95.0518 27.854 94.9438 27.71C94.7038 27.41 94.1698 27.26 93.3418 27.26C92.7058 27.26 92.2138 27.308 91.8658 27.404C91.5298 27.488 91.2898 27.632 91.1458 27.836C91.0138 28.04 90.9478 28.328 90.9478 28.7V35H89.3278V26.288ZM102.31 35.18C101.386 35.18 100.39 35.108 99.3222 34.964V33.722C100.726 33.95 101.734 34.064 102.346 34.064C103.114 34.064 103.666 33.992 104.002 33.848C104.338 33.692 104.506 33.41 104.506 33.002V32.12C104.506 31.748 104.38 31.484 104.128 31.328C103.876 31.172 103.468 31.094 102.904 31.094H101.914C101.014 31.094 100.324 30.908 99.8442 30.536C99.3762 30.164 99.1422 29.642 99.1422 28.97V28.16C99.1422 26.792 100.438 26.108 103.03 26.108C103.222 26.108 104.104 26.156 105.676 26.252V27.422C104.608 27.254 103.702 27.17 102.958 27.17C102.106 27.17 101.524 27.254 101.212 27.422C100.9 27.59 100.744 27.872 100.744 28.268V29.006C100.744 29.594 101.278 29.888 102.346 29.888H103.354C105.19 29.888 106.108 30.572 106.108 31.94V32.696C106.108 33.596 105.796 34.238 105.172 34.622C104.548 34.994 103.594 35.18 102.31 35.18ZM112.604 23.318H116.42C116.96 23.318 117.392 23.33 117.716 23.354C118.052 23.378 118.406 23.432 118.778 23.516C119.162 23.6 119.468 23.726 119.696 23.894C119.936 24.062 120.14 24.29 120.308 24.578C120.464 24.854 120.542 25.202 120.542 25.622V28.052C120.542 29.024 120.164 29.726 119.408 30.158C118.664 30.578 117.56 30.788 116.096 30.788H114.35V35H112.604V23.318ZM116.33 29.69C117.086 29.69 117.692 29.552 118.148 29.276C118.604 29 118.832 28.562 118.832 27.962V25.838C118.832 25.514 118.748 25.25 118.58 25.046C118.412 24.83 118.172 24.68 117.86 24.596C117.56 24.524 117.308 24.476 117.104 24.452C116.9 24.428 116.63 24.416 116.294 24.416H114.332V29.69H116.33ZM122.761 26.288H124.291V27.71C124.291 27.434 124.411 27.176 124.651 26.936C124.891 26.684 125.197 26.486 125.569 26.342C125.941 26.186 126.307 26.108 126.667 26.108H127.459V27.494H126.559C125.791 27.494 125.233 27.596 124.885 27.8C124.549 27.992 124.381 28.346 124.381 28.862V35H122.761V26.288ZM132.762 35.18C131.994 35.18 131.418 35.15 131.034 35.09C130.65 35.042 130.266 34.928 129.882 34.748C129.486 34.568 129.198 34.28 129.018 33.884C128.838 33.476 128.748 32.93 128.748 32.246V29.222C128.748 28.682 128.814 28.208 128.946 27.8C129.078 27.392 129.252 27.074 129.468 26.846C129.648 26.642 129.918 26.486 130.278 26.378C130.65 26.258 131.028 26.18 131.412 26.144C131.844 26.12 132.294 26.108 132.762 26.108C133.386 26.108 133.854 26.126 134.166 26.162C134.49 26.186 134.832 26.246 135.192 26.342C135.564 26.45 135.852 26.612 136.056 26.828C136.26 27.044 136.434 27.356 136.578 27.764C136.71 28.184 136.776 28.67 136.776 29.222V32.246C136.776 33.266 136.542 34.01 136.074 34.478C135.882 34.67 135.606 34.82 135.246 34.928C134.886 35.036 134.514 35.108 134.13 35.144C133.674 35.168 133.218 35.18 132.762 35.18ZM132.762 34.118C133.266 34.118 133.632 34.106 133.86 34.082C134.088 34.058 134.31 33.992 134.526 33.884C134.742 33.788 134.892 33.632 134.976 33.416C135.072 33.188 135.12 32.876 135.12 32.48V28.952C135.12 28.412 135.054 28.022 134.922 27.782C134.79 27.53 134.562 27.368 134.238 27.296C133.926 27.212 133.434 27.17 132.762 27.17C132.09 27.17 131.592 27.212 131.268 27.296C130.956 27.368 130.734 27.53 130.602 27.782C130.47 28.022 130.404 28.412 130.404 28.952V32.48C130.404 32.876 130.446 33.188 130.53 33.416C130.626 33.632 130.782 33.788 130.998 33.884C131.214 33.992 131.436 34.058 131.664 34.082C131.892 34.106 132.258 34.118 132.762 34.118ZM140.076 27.35H138.078V26.288H140.076V24.884C140.076 23.888 140.292 23.198 140.724 22.814C141.168 22.418 141.912 22.22 142.956 22.22C143.604 22.22 144.21 22.25 144.774 22.31V23.354C144.318 23.294 143.91 23.264 143.55 23.264C143.034 23.264 142.644 23.306 142.38 23.39C142.128 23.474 141.948 23.624 141.84 23.84C141.744 24.044 141.696 24.356 141.696 24.776V26.288H144.774V27.35H141.696V35H140.076V27.35ZM145.962 22.4H147.582V24.164H145.962V22.4ZM145.962 26.288H147.582V35H145.962V26.288ZM154.048 35.18C153.304 35.18 152.722 35.102 152.302 34.946C151.882 34.778 151.576 34.502 151.384 34.118C151.204 33.722 151.114 33.17 151.114 32.462V27.35H149.17V26.288H151.114V23.588H152.752V26.288H155.866V27.35H152.752V32.552C152.752 32.984 152.8 33.308 152.896 33.524C153.004 33.74 153.184 33.896 153.436 33.992C153.7 34.076 154.078 34.118 154.57 34.118C154.726 34.118 155.158 34.07 155.866 33.974V35.036C155.254 35.132 154.648 35.18 154.048 35.18ZM161.308 35.18C158.644 35.18 157.312 34.292 157.312 32.516V29.078C157.312 28.022 157.612 27.266 158.212 26.81C158.824 26.342 159.808 26.108 161.164 26.108C162.448 26.108 163.372 26.33 163.936 26.774C164.512 27.218 164.8 27.986 164.8 29.078V31.004H158.95V32.318C158.95 32.918 159.16 33.35 159.58 33.614C160 33.878 160.648 34.01 161.524 34.01C162.352 34.01 163.33 33.866 164.458 33.578V34.82C163.354 35.06 162.304 35.18 161.308 35.18ZM163.18 29.942V28.574C163.18 28.046 163.018 27.686 162.694 27.494C162.382 27.29 161.842 27.188 161.074 27.188C160.33 27.188 159.79 27.29 159.454 27.494C159.118 27.686 158.95 28.046 158.95 28.574V29.942H163.18ZM170.941 35.18C168.277 35.18 166.945 34.292 166.945 32.516V29.078C166.945 28.022 167.245 27.266 167.845 26.81C168.457 26.342 169.441 26.108 170.797 26.108C172.081 26.108 173.005 26.33 173.569 26.774C174.145 27.218 174.433 27.986 174.433 29.078V31.004H168.583V32.318C168.583 32.918 168.793 33.35 169.213 33.614C169.633 33.878 170.281 34.01 171.157 34.01C171.985 34.01 172.963 33.866 174.091 33.578V34.82C172.987 35.06 171.937 35.18 170.941 35.18ZM172.813 29.942V28.574C172.813 28.046 172.651 27.686 172.327 27.494C172.015 27.29 171.475 27.188 170.707 27.188C169.963 27.188 169.423 27.29 169.087 27.494C168.751 27.686 168.583 28.046 168.583 28.574V29.942H172.813ZM176.902 26.288H178.432V27.71C178.432 27.434 178.552 27.176 178.792 26.936C179.032 26.684 179.338 26.486 179.71 26.342C180.082 26.186 180.448 26.108 180.808 26.108H181.6V27.494H180.7C179.932 27.494 179.374 27.596 179.026 27.8C178.69 27.992 178.522 28.346 178.522 28.862V35H176.902V26.288Z" fill="black"/>
</svg>
