<svg width="368" height="312" viewBox="0 0 368 312" fill="none" xmlns="http://www.w3.org/2000/svg">
<g filter="url(#filter0_d)">
<path d="M239.992 91.7638L189.987 76.7615C186.233 75.6416 182.375 75.2473 178.553 75.3869V75.2582H117.777L10 39.4431L10.3258 190.885L41.2643 206.35L59.5826 161.568L86.3426 172.274L93.2811 154.933L103.33 164.982L93.9547 174.36C90.6963 177.619 88.8288 182.126 88.8288 186.737C88.8288 196.173 96.3533 203.845 105.712 204.176C106.038 213.322 113.39 220.674 122.536 220.999C122.861 230.145 130.213 237.497 139.359 237.823C139.696 247.182 147.362 254.706 156.801 254.706C161.409 254.706 165.919 252.839 169.175 249.58L178.553 240.205L182.32 243.973C185.579 247.231 190.086 249.098 194.697 249.098C204.135 249.098 211.805 241.574 212.136 232.215C221.282 231.889 228.634 224.537 228.96 215.392C238.105 215.066 245.457 207.714 245.783 198.568C255.142 198.232 262.669 190.565 262.669 181.129C262.669 180.332 262.54 179.546 262.434 178.755L270.481 170.708L276.984 183.719L312.208 166.105L333.494 206.745L358.001 190.414V45.4753L239.992 91.7638ZM35.4539 190.907L21.5304 183.944L21.2484 54.9986L82.6981 75.4225L35.4539 190.907ZM80.0968 157.693L63.824 151.187L93.366 78.9657L109.442 84.3106L80.0968 157.693ZM100.044 186.737C100.044 185.08 100.71 183.462 101.882 182.287L111.742 172.43C112.914 171.258 114.535 170.59 116.189 170.59C119.655 170.59 122.475 173.413 122.475 176.877C122.475 178.531 121.807 180.152 120.635 181.324L110.778 191.184C109.606 192.356 107.985 193.021 106.331 193.021C102.865 193.021 100.044 190.201 100.044 186.737ZM116.868 203.56C116.868 201.904 117.533 200.285 118.705 199.111L128.565 189.253C129.737 188.081 131.358 187.413 133.012 187.413C136.478 187.413 139.299 190.236 139.299 193.7C139.299 195.354 138.63 196.975 137.459 198.147L127.601 208.007C126.429 209.179 124.808 209.844 123.154 209.844C119.688 209.844 116.868 207.024 116.868 203.56ZM133.691 220.383C133.691 218.727 134.356 217.108 135.528 215.934L145.388 206.076C146.56 204.905 148.181 204.236 149.835 204.236C153.301 204.236 156.122 207.059 156.122 210.523C156.122 212.177 155.454 213.798 154.282 214.97L144.424 224.83C143.252 226.002 141.631 226.667 139.978 226.667C136.511 226.667 133.691 223.847 133.691 220.383ZM171.105 231.793L161.248 241.653C160.076 242.825 158.455 243.491 156.801 243.491C153.334 243.491 150.514 240.67 150.514 237.207C150.514 235.55 151.179 233.932 152.351 232.757L162.211 222.9C163.383 221.728 165.004 221.06 166.658 221.06C170.125 221.06 172.945 223.883 172.945 227.346C172.945 229 172.277 230.621 171.105 231.793ZM245.167 187.413C243.513 187.413 241.892 186.748 240.72 185.576L193.733 138.586L185.803 146.516L232.79 193.503C233.962 194.678 234.63 196.296 234.63 197.952C234.63 201.416 231.81 204.236 228.343 204.236C226.69 204.236 225.069 203.571 223.897 202.399L176.91 155.41L168.98 163.339L215.967 210.326C217.139 211.501 217.807 213.119 217.807 214.776C217.807 218.239 214.987 221.06 211.52 221.06C209.866 221.06 208.245 220.394 207.073 219.222L160.087 172.233L152.157 180.163L199.144 227.149C200.316 228.324 200.984 229.942 200.984 231.599C200.984 235.063 198.163 237.883 194.697 237.883C193.043 237.883 191.422 237.218 190.25 236.046L183.925 229.718C184.037 228.935 184.161 228.149 184.161 227.346C184.161 217.908 176.633 210.238 167.274 209.907C166.948 200.762 159.597 193.41 150.451 193.084C150.125 183.938 142.773 176.587 133.628 176.261C133.291 166.902 125.627 159.374 116.189 159.374C115.392 159.374 114.606 159.503 113.817 159.61L97.8073 143.6L120.663 86.4737H153.8L133.209 107.067C129.898 110.37 128.083 114.767 128.083 119.444C128.083 129.093 135.933 136.943 145.585 136.943C150.194 136.943 154.703 135.076 157.959 131.818L172.816 116.958C175.856 113.929 181.209 113.811 184.374 116.711L197.484 128.729C201.841 132.721 206.682 136.043 211.862 138.644L249.613 176.68C250.785 177.854 251.454 179.473 251.454 181.129C251.454 184.593 248.633 187.413 245.167 187.413ZM257.061 168.268L234.011 145.043C236.071 145.237 238.146 145.355 240.238 145.355V134.14C227.182 134.14 214.688 129.279 205.066 120.457L191.953 108.445C184.552 101.649 171.998 101.92 164.892 109.033L150.038 123.891C148.86 125.057 147.239 125.728 145.585 125.728C142.119 125.728 139.299 122.908 139.299 119.444C139.299 117.76 139.947 116.185 141.136 114.994L162.513 93.6203C168.794 87.339 178.227 84.9486 186.762 87.506L236.301 102.366L265.185 160.144L257.061 168.268ZM281.998 168.673L247.998 100.668L272.83 90.926L307.003 156.168L281.998 168.673ZM346.785 184.415L337.643 190.51L283.334 86.8105L346.785 61.9234V184.415Z" fill="black"/>
<path d="M77.0958 247.294L85.0255 239.361L92.9552 247.294L85.0255 255.223L77.0958 247.294Z" fill="black"/>
<path d="M98.4891 266.267L104.724 256.943L114.042 263.172L107.81 272.496L98.4891 266.267Z" fill="black"/>
<path d="M123.174 280.713L127.467 270.352L137.828 274.645L133.535 285.007L123.174 280.713Z" fill="black"/>
<path d="M150.213 290.078L152.403 279.084L163.394 281.275L161.204 292.268L150.213 290.078Z" fill="black"/>
<path d="M254.268 33.1371L260.503 23.8137L269.821 30.043L263.586 39.3665L254.268 33.1371Z" fill="black"/>
<path d="M230.479 21.6778L234.773 11.3167L245.134 15.6101L240.84 25.9713L230.479 21.6778Z" fill="black"/>
<path d="M204.924 15.0708L207.109 4.06885L218.103 6.2539L215.918 17.2531L204.924 15.0708Z" fill="black"/>
<path d="M290.708 19.1807H279.492V47.2194H251.454V58.4349H290.708V19.1807Z" fill="black"/>
<path d="M88.8289 215.452H55.1824V249.098H66.3979V226.667H88.8289V215.452Z" fill="black"/>
<path d="M184.161 13.5729H189.768V2.35742H184.161C147.256 2.35742 112.043 16.1769 85.0091 41.2639L92.6403 49.4866C117.596 26.3273 150.092 13.5729 184.161 13.5729Z" fill="black"/>
<path d="M184.161 282.745H178.553V293.96H184.161C235.422 293.96 281.981 267.8 308.714 223.981L299.141 218.144C274.462 258.594 231.479 282.745 184.161 282.745Z" fill="black"/>
</g>
<defs>
<filter id="filter0_d" x="0" y="0.357422" width="368.001" height="311.603" filterUnits="userSpaceOnUse" color-interpolation-filters="sRGB">
<feFlood flood-opacity="0" result="BackgroundImageFix"/>
<feColorMatrix in="SourceAlpha" type="matrix" values="0 0 0 0 0 0 0 0 0 0 0 0 0 0 0 0 0 0 127 0" result="hardAlpha"/>
<feOffset dy="8"/>
<feGaussianBlur stdDeviation="5"/>
<feComposite in2="hardAlpha" operator="out"/>
<feColorMatrix type="matrix" values="0 0 0 0 0 0 0 0 0 0 0 0 0 0 0 0 0 0 0.25 0"/>
<feBlend mode="normal" in2="BackgroundImageFix" result="effect1_dropShadow"/>
<feBlend mode="normal" in="SourceGraphic" in2="effect1_dropShadow" result="shape"/>
</filter>
</defs>
</svg>
